<svg id="Capa_1" enable-background="new 0 0 512 512" height="512" viewBox="0 0 512 512" width="512" xmlns="http://www.w3.org/2000/svg" xmlns:xlink="http://www.w3.org/1999/xlink"><linearGradient id="SVGID_1_" gradientUnits="userSpaceOnUse" x1="256" x2="256" y1="512" y2="0"><stop offset="0" stop-color="#fd3a84"/><stop offset="1" stop-color="#ffa68d"/></linearGradient><g><g><g><path d="m206.606 304.393c-5.857-5.857-15.355-5.857-21.213 0l-30 30c-5.858 5.858-5.858 15.355 0 21.213l30 30c2.929 2.929 6.768 4.394 10.607 4.394s7.678-1.465 10.606-4.393c5.858-5.858 5.858-15.355 0-21.213l-19.393-19.394 19.393-19.393c5.858-5.858 5.858-15.356 0-21.214zm229.394-124.393h-15.688c.45-4.981.688-9.99.688-15 0-90.981-74.019-165-165-165s-165 74.019-165 165c0 5.01.238 10.019.688 15h-15.688c-8.284 0-15 6.716-15 15v302c0 8.284 6.716 15 15 15h360c8.284 0 15-6.716 15-15v-302c0-8.284-6.716-15-15-15zm-180-150c74.439 0 135 60.561 135 135 0 5.018-.286 10.031-.835 15h-91.745c1.665-4.695 2.58-9.742 2.58-15 0-24.813-20.187-45-45-45s-45 20.187-45 45c0 5.258.915 10.305 2.58 15h-91.745c-.548-4.969-.835-9.982-.835-15 0-74.439 60.561-135 135-135zm15 135c0 8.271-6.729 15-15 15s-15-6.729-15-15 6.729-15 15-15 15 6.729 15 15zm150 317h-330v-272h311.957c.019 0 .039.003.059.003.022 0 .044-.003.067-.003h17.917zm-153.862-181.552c-8.039-2.009-16.181 2.877-18.19 10.914l-15 60c-2.009 8.037 2.877 16.181 10.914 18.19 1.222.305 2.445.451 3.649.451 6.721 0 12.837-4.55 14.541-11.366l15-60c2.01-8.036-2.877-16.18-10.914-18.189zm59.468 3.945c-5.857-5.857-15.355-5.857-21.213 0-5.858 5.858-5.858 15.355 0 21.213l19.394 19.394-19.393 19.393c-5.858 5.858-5.858 15.355 0 21.213 2.928 2.929 6.767 4.394 10.606 4.394s7.678-1.465 10.606-4.393l30-30c5.858-5.858 5.858-15.355 0-21.213z" fill="url(#SVGID_1_)"/></g></g></g></svg>